# xmcd CD database file
#
# Track frame offsets:
#	150
#	17410
#	37050
#	48182
#	62370
#	75254
#	85617
#	103165
#	111919
#	121995
#	136620
#	151798
#	166807
#	176639
#	193226
#	200532
#	209249
#
# Disc length: 3007 seconds
#
# Revision: 0
# Processed by: cddbd v1.5.2PL0 Copyright (c) Steve Scherf et al.
# Submitted via: CDex 1.70beta2
#
DISCID=d80bbd11
DTITLE=Sestka Sextett - Sestka Sextett - CD "C"
DYEAR=2002
DGENRE=Country
TTITLE0=Im Weinberg
TTITLE1=Ich kenne ein Gärtchen
TTITLE2=Molldur
TTITLE3=Auf den Hodoniner Wiesen
TTITLE4=Fasst Euch, Burschen
TTITLE5=Die Kokosnuss
TTITLE6=Oh Du mein Mädelein
TTITLE7=Weihnachten
TTITLE8=Gesang der Lerche
TTITLE9=Spiel, Kapelle, spiel auf
TTITLE10=Hodoniner Fasanviertel
TTITLE11=Die Netcizer Polka
TTITLE12=Verwirrungswalzer
TTITLE13=Deine Liebe
TTITLE14=Alte Polka
TTITLE15=Es hat eins geschlagen
TTITLE16=Ich hab nicht, hab nicht
EXTD=YEAR: 2002
EXTT0=
EXTT1=
EXTT2=
EXTT3=
EXTT4=
EXTT5=
EXTT6=
EXTT7=
EXTT8=
EXTT9=
EXTT10=
EXTT11=
EXTT12=
EXTT13=
EXTT14=
EXTT15=
EXTT16=
PLAYORDER=
